<?xml version="1.0" encoding="UTF-8" standalone="no"?>
<svg
   xmlns:dc="http://purl.org/dc/elements/1.1/"
   xmlns:cc="http://creativecommons.org/ns#"
   xmlns:rdf="http://www.w3.org/1999/02/22-rdf-syntax-ns#"
   xmlns:svg="http://www.w3.org/2000/svg"
   xmlns="http://www.w3.org/2000/svg"
   viewBox="0 0 201.26666 57.906666"
   height="57.906666"
   width="201.26666"
   xml:space="preserve"
   id="svg2"
   version="1.1"><metadata
     id="metadata8"><rdf:RDF><cc:Work
         rdf:about=""><dc:format>image/svg+xml</dc:format><dc:type
           rdf:resource="http://purl.org/dc/dcmitype/StillImage" /></cc:Work></rdf:RDF></metadata><defs
     id="defs6" /><g
     transform="matrix(1.3333333,0,0,-1.3333333,0,57.906667)"
     id="g10"><g
       transform="scale(0.1)"
       id="g12"><path
         id="path14"
         style="fill:#040606;fill-opacity:1;fill-rule:nonzero;stroke:none"
         d="M 0,0.167969 0.078125,434.258 161.66,434.227 161.656,399.258 23.0156,399.289 22.9844,242.531 148.141,242.512 148.137,207.539 22.9766,207.566 22.9453,35.1094 164.957,35.0898 164.949,0.140625 0,0.167969" /><path
         id="path16"
         style="fill:#040606;fill-opacity:1;fill-rule:nonzero;stroke:none"
         d="M 299.887,0.109375 299.969,434.199 322.902,434.195 322.828,35.0586 453.043,35.0313 453.039,0.078125 299.887,0.109375" /><path
         id="path18"
         style="fill:#040606;fill-opacity:1;fill-rule:nonzero;stroke:none"
         d="M 581.215,0.0585938 581.293,434.148 604.23,434.141 604.156,35.0039 734.371,34.9805 734.367,0.03125 581.215,0.0585938" /><path
         id="path20"
         style="fill:#040606;fill-opacity:1;fill-rule:nonzero;stroke:none"
         d="M 854.078,0.00390625 905.777,434.082 928.699,434.078 877.027,0.00390625 h -22.949" /><path
         id="path22"
         style="fill:#040606;fill-opacity:1;fill-rule:nonzero;stroke:none"
         d="m 1062.87,134.031 c 0.88,-18.336 3.16,-33.89 6.9,-46.6951 3.74,-12.7734 8.53,-23.1914 14.42,-31.2109 5.87,-8.0273 12.63,-13.8281 20.32,-17.4609 7.68,-3.6446 15.91,-5.4297 24.67,-5.4297 10.28,-0.0078 19.11,2.2851 26.59,6.8672 7.48,4.5468 13.58,10.75 18.27,18.6015 4.72,7.8125 8.19,16.8867 10.42,27.1953 2.26,10.3164 3.38,21.1956 3.38,32.6526 0,16.027 -2.02,29.004 -6.07,38.945 -4.07,9.906 -9.36,18.031 -15.86,24.336 -6.54,6.305 -13.99,11.363 -22.45,15.172 -8.42,3.828 -17.08,7.535 -25.94,11.176 -8.87,3.625 -17.49,7.925 -25.95,12.894 -8.43,4.957 -15.91,11.633 -22.41,20.039 -6.54,8.395 -11.83,19.184 -15.87,32.36 -4.04,13.179 -6.1,29.863 -6.09,50.117 0,14.101 1.65,27.851 4.99,41.215 3.31,13.367 8.24,25.211 14.74,35.504 6.5,10.312 14.7,18.515 24.51,24.613 9.84,6.113 21.16,9.168 33.97,9.16 13.04,0 24.4,-3.254 34.14,-9.727 9.7,-6.507 17.76,-15.386 24.2,-26.648 6.39,-11.254 11.18,-24.332 14.38,-39.23 3.19,-14.879 4.81,-30.719 4.81,-47.524 l -20.83,0.008 c 0.01,15.652 -1.55,29.203 -4.64,40.66 -3.1,11.442 -7.32,20.797 -12.64,28.059 -5.35,7.25 -11.45,12.593 -18.26,16.031 -6.84,3.437 -13.89,5.16 -21.16,5.16 -11.1,0 -20.46,-2.758 -28.05,-8.301 -7.58,-5.527 -13.61,-12.687 -18.1,-21.465 -4.48,-8.781 -7.58,-18.519 -9.3,-29.203 -1.69,-10.699 -2.03,-21.382 -0.96,-32.066 1.28,-13.363 4.28,-24.047 8.97,-32.07 4.67,-8.024 10.47,-14.61 17.31,-19.75 6.81,-5.164 14.36,-9.375 22.58,-12.614 8.22,-3.254 16.62,-6.687 25.14,-10.316 8.56,-3.625 16.82,-7.922 24.84,-12.875 8.02,-4.977 15.1,-11.668 21.3,-20.063 6.19,-8.39 11.14,-19.175 14.88,-32.355 3.74,-13.16 5.63,-29.691 5.63,-49.527 -0.01,-38.184 -7.4,-67.7738 -22.13,-88.7699 -14.77,-20.9844 -35.5,-31.5039125 -62.19,-31.49219375 -11.96,0 -23.05,2.76172375 -33.33,8.32812375 -10.25,5.52737 -19.1,13.92577 -26.58,25.17577 -7.48,11.2617 -13.28,25.2149 -17.45,41.836 -4.15,16.582 -6.23,36.1722 -6.23,58.6872 h 21.13" /><path
         id="path24"
         style="fill:#040606;fill-opacity:1;fill-rule:nonzero;stroke:none"
         d="m 1362.76,134.051 c 0.87,-18.336 3.15,-33.883 6.89,-46.6955 3.75,-12.7735 8.53,-23.1836 14.43,-31.211 5.86,-8.0156 12.63,-13.8203 20.31,-17.4609 7.69,-3.6328 15.91,-5.418 24.67,-5.4297 10.28,0 19.11,2.2969 26.59,6.875 7.48,4.5508 13.59,10.7422 18.27,18.5938 4.72,7.8242 8.2,16.8828 10.42,27.1992 2.26,10.3086 3.37,21.1991 3.37,32.6521 0.01,16.024 -2.01,29 -6.05,38.942 -4.09,9.91 -9.37,18.035 -15.87,24.336 -6.54,6.3 -13.99,11.359 -22.44,15.168 -8.43,3.828 -17.08,7.535 -25.95,11.175 -8.87,3.621 -17.49,7.926 -25.95,12.895 -8.43,4.957 -15.91,11.633 -22.4,20.039 -6.54,8.394 -11.83,19.18 -15.87,32.355 -4.04,13.176 -6.09,29.86 -6.09,50.114 0.01,14.105 1.66,27.855 5,41.215 3.3,13.359 8.22,25.203 14.72,35.496 6.52,10.312 14.7,18.515 24.51,24.613 9.85,6.121 21.17,9.168 33.97,9.16 13.05,0 24.4,-3.254 34.14,-9.727 9.71,-6.507 17.75,-15.386 24.19,-26.644 6.41,-11.254 11.18,-24.336 14.38,-39.227 3.2,-14.879 4.82,-30.718 4.81,-47.519 l -20.82,0.004 c 0,15.652 -1.54,29.199 -4.65,40.66 -3.1,11.437 -7.3,20.793 -12.63,28.055 -5.36,7.246 -11.45,12.593 -18.26,16.031 -6.84,3.437 -13.88,5.156 -21.16,5.16 -11.09,0 -20.46,-2.762 -28.05,-8.305 -7.58,-5.523 -13.61,-12.687 -18.09,-21.461 -4.49,-8.777 -7.59,-18.519 -9.31,-29.199 -1.69,-10.703 -2.03,-21.383 -0.95,-32.062 1.28,-13.368 4.28,-24.051 8.96,-32.075 4.69,-8.019 10.48,-14.605 17.31,-19.75 6.81,-5.156 14.36,-9.371 22.58,-12.605 8.22,-3.254 16.61,-6.695 25.14,-10.316 8.56,-3.625 16.81,-7.922 24.83,-12.879 8.03,-4.977 15.1,-11.664 21.3,-20.059 6.2,-8.387 11.15,-19.176 14.89,-32.351 3.73,-13.161 5.62,-29.696 5.62,-49.524 -0.01,-38.1796 -7.39,-67.7695 -22.12,-88.7656 -14.77,-20.9843 -35.5,-31.5038687 -62.19,-31.49215 -11.96,0 -23.05,2.76563 -33.33,8.32813 -10.24,5.53122 -19.1,13.91792 -26.58,25.17582 -7.48,11.2617 -13.27,25.2187 -17.45,41.8281 -4.14,16.582 -6.22,36.1837 -6.22,58.6917 l 21.13,-0.004" /></g></g></svg>