<?xml version="1.0" encoding="utf-8"?>
<!-- Generator: Adobe Illustrator 25.0.1, SVG Export Plug-In . SVG Version: 6.00 Build 0)  -->
<svg version="1.1" id="Ebene_1" xmlns="http://www.w3.org/2000/svg" xmlns:xlink="http://www.w3.org/1999/xlink" x="0px" y="0px"
	 viewBox="0 0 385.6 33.2" style="enable-background:new 0 0 385.6 33.2;" xml:space="preserve">
<style type="text/css">
	.st0{fill:#F8B500;}
	.st1{fill:#FFFFFF;}
</style>
<g>
	<g>
		<path class="st0" d="M16.3,32.3H0v-8.4h7.9V9H0V0.6h16.3v11.4L36.4,0.6h9.4V9h-8.6l-13,7.3l12.8,7.5h8.7v8.4h-9.5L16.3,20.7V32.3z
			 M65.3,9v14.9h8.4v8.4H48.4v-8.4h8.4V9h-8.4V0.6h25.4V9H65.3z M84.7,9H95v14.9h-8.3v8.4h24.9v-8.4h-8.3V9h10.3v7.7h8.4V0.6H76.3
			v16.1h8.4V9z M130.3,32.3c-3.1,0-5.6-2.5-5.6-5.6V6.2c0-3.1,2.5-5.6,5.6-5.6h34.2c3.1,0,5.6,2.5,5.6,5.6v20.5
			c0,3.1-2.5,5.6-5.6,5.6H130.3z M134.5,9c-0.8,0-1.4,0.6-1.4,1.4v12.1c0,0.8,0.6,1.4,1.4,1.4h25.8c0.8,0,1.4-0.6,1.4-1.4V10.4
			c0-0.8-0.6-1.4-1.4-1.4H134.5z"/>
	</g>
	<g>
		<g>
			<path class="st1" d="M369.2,29.5c2.2,1.5,4.8,3.1,8.1,3.1c4.4,0,8.4-2.3,8.4-7c0-3.2-2-5-4.4-6.4c-1.2-0.6-2.8-1.4-2.8-2.3
				c0-0.6,0.6-0.6,1.1-0.6c0.8,0,1.9,0.7,3.1,1.2l3.1-4.5c-1.3-0.9-3.7-2.5-7.2-2.5c-3.8,0-8,2.2-8,6.6c0,4.1,2.4,5.6,5.6,6.8
				c1.3,0.5,2.1,1.1,2.1,1.8c0,0.5-0.6,0.7-1.3,0.7c-1.4,0-3.1-1.1-4.1-2L369.2,29.5z"/>
			<path class="st1" d="M255.4,29.5c2.2,1.5,4.8,3.1,8.1,3.1c4.3,0,8.4-2.3,8.4-7c0-3.2-2-5-4.5-6.4c-1.2-0.6-2.8-1.4-2.8-2.3
				c0-0.6,0.6-0.6,1.1-0.6c0.8,0,1.9,0.7,3.1,1.2l3.1-4.5c-1.3-0.9-3.7-2.5-7.2-2.5c-3.8,0-8,2.2-8,6.6c0,4.1,2.4,5.6,5.6,6.8
				c1.3,0.5,2.1,1.1,2.1,1.8c0,0.5-0.6,0.7-1.3,0.7c-1.4,0-3.1-1.1-4.1-2L255.4,29.5z"/>
			<path class="st1" d="M235.9,23l0,1.6c0,1.1,0.4,2.8,1.6,2.8c1.3,0,1.8-1.6,1.8-2.8h7.1c0,5.4-3.5,8.6-9.3,8.6
				c-5.9,0-9.7-4.5-9.7-10.9c0-7.3,3.3-11.7,9.9-11.7c3.2,0,5.8,1.5,7.4,3.6c2,2.8,2,5.5,2,8.9H235.9z M235.9,19h3.4
				c0-1.2-0.4-2.8-1.7-2.8C236.3,16.2,235.9,17.9,235.9,19"/>
			<path class="st1" d="M223.5,32.3l5.7-20.9h-7.3l-1.7,10.1h-0.3c-0.1-1.7-1.9-10.1-1.9-10.1h-6.2c0,0-1.4,8.4-1.8,10.1h-0.3
				c-0.1-1.7-2.1-10.1-2.1-10.1h-7.2l5.4,20.9h7l1.9-9.8h0.2l1.8,9.8H223.5z"/>
		</g>
		<rect x="247.1" y="11.4" class="st1" width="8.2" height="20.9"/>
		<g>
			<path class="st1" d="M314.8,11.4h-7.5v20.9h8.2V22.3c0-2.1,0.1-3.5,1.4-3.5c1.2,0,1.1,1.2,1.1,3v10.6h8.2v-15
				c0-3.1-1.9-6.4-5.4-6.4c-2.6,0-4.3,1.2-5.9,2.6l-0.1-0.1L314.8,11.4z"/>
			<path class="st1" d="M337.5,32.3V18.3l3.3-0.1v-6.8l-3.2,0V10c0-2.1,0.7-2.7,1.6-2.7c0.6,0,0.9,0,1.6,0V0.6
				c-1.2-0.4-3.1-0.6-4.6-0.6c-2.7,0-6.8,1.4-6.8,7.3v4h-2.8v6.9h2.8v14.1H337.5z"/>
			<path class="st1" d="M271.1,29.5c2.2,1.5,4.8,3.1,8.1,3.1c4.4,0,8.4-2.3,8.4-7c0-3.2-2-5-4.5-6.4c-1.2-0.6-2.8-1.4-2.8-2.3
				c0-0.6,0.6-0.6,1.1-0.6c0.8,0,1.9,0.7,3.1,1.2l3.1-4.5c-1.3-0.9-3.7-2.5-7.2-2.5c-3.8,0-8,2.2-8,6.6c0,4.1,2.4,5.6,5.6,6.8
				c1.3,0.5,2.1,1.1,2.1,1.8c0,0.5-0.6,0.7-1.3,0.7c-1.4,0-3.1-1.1-4.1-2L271.1,29.5z"/>
			<path class="st1" d="M296.1,23l0,1.6c0,1.1,0.4,2.8,1.6,2.8c1.3,0,1.8-1.6,1.8-2.8h7.1c0,5.4-3.5,8.6-9.3,8.6
				c-5.9,0-9.7-4.5-9.7-10.9c0-7.3,3.3-11.7,9.9-11.7c3.2,0,5.8,1.5,7.4,3.6c2,2.8,2,5.5,2,8.9H296.1z M296.1,19h3.3
				c0-1.2-0.4-2.8-1.7-2.8C296.6,16.2,296.1,17.9,296.1,19"/>
			<path class="st1" d="M349.2,23l0,1.6c0,1.1,0.4,2.8,1.6,2.8c1.3,0,1.8-1.6,1.8-2.8h7.1c0,5.4-3.5,8.6-9.3,8.6
				c-5.9,0-9.7-4.5-9.7-10.9c0-7.3,3.3-11.7,9.9-11.7c3.2,0,5.8,1.5,7.4,3.6c2,2.8,2,5.5,2,8.9H349.2z M349.2,19h3.3
				c0-1.2-0.4-2.8-1.7-2.8C349.6,16.2,349.1,17.9,349.2,19"/>
		</g>
		<rect x="360.6" class="st1" width="8.2" height="32.3"/>
		<g>
			<path class="st1" d="M255.6,5.1c0,2.5-2,4.5-4.5,4.5c-2.5,0-4.5-2-4.5-4.5s2-4.5,4.5-4.5C253.6,0.7,255.6,2.6,255.6,5.1"/>
		</g>
	</g>
</g>
</svg>
